# xmcd
# 
# Track frame offsets:
#     150
#     3580
#     18235
#     37590
#     54690
#     70645
#     83725
#     97490
#     110960
#     125275
#     141575
#     156600
#     169275
#     183075
# 
# Disc length: 2670
# 
# Revision: 4
# Processed by: cddbd v1.5.2PL0 Copyright (c) Steve Scherf et al.
# Submitted via: BonkEnc v1.0.8
# 
DISCID=c20a6c0e
DTITLE=La Toya Jackson - My Country Collection
DYEAR=1996
DGENRE=Country
TTITLE0=Fanfare — Intro
TTITLE1=Burnin' Love
TTITLE2=So In Love With You
TTITLE3=Georgia Dreamin'
TTITLE4=I've Got To Be Bad
TTITLE5=Crazy
TTITLE6=Trash Like You
TTITLE7=Another Heart
TTITLE8=Dance Away These Blues Tonight
TTITLE9=Boots
TTITLE10=What You Don't Say (with Lee Greenwood)
TTITLE11=Little Misunderstood
TTITLE12=One Strike You're Out
TTITLE13=Break A Leg
EXTD=
EXTT0=
EXTT1=
EXTT2=
EXTT3=
EXTT4=
EXTT5=
EXTT6=
EXTT7=
EXTT8=
EXTT9=
EXTT10=
EXTT11=
EXTT12=
EXTT13=
PLAYORDER=
